<svg width="927" height="200" viewBox="0 0 927 200" fill="none" xmlns="http://www.w3.org/2000/svg">
<g clip-path="url(#clip0_420_6371)">
<path d="M605.04 41.9314C637.058 41.9314 663.232 68.1067 663.232 100.127C663.232 132.147 637.058 158.323 605.04 158.323C573.022 158.323 546.849 132.147 546.849 100.127C546.849 68.1067 573.022 41.9314 605.04 41.9314ZM605.04 0C549.898 0 505.174 44.7268 505.174 99.8729C505.174 155.019 549.898 199.746 605.04 199.746C660.183 199.746 704.906 155.019 704.906 99.8729C704.906 44.7268 660.183 0 605.04 0Z" fill="#010101"/>
<path d="M605.04 171.792C644.757 171.792 676.954 139.593 676.954 99.8729C676.954 60.1533 644.757 27.9543 605.04 27.9543C565.323 27.9543 533.127 60.1533 533.127 99.8729C533.127 139.593 565.323 171.792 605.04 171.792Z" stroke="#FDF532" stroke-width="0.8379" stroke-miterlimit="10"/>
<path d="M605.04 14.4854C557.776 14.4854 519.405 52.859 519.405 100.127C519.405 100.381 519.405 100.889 519.405 101.144C519.913 55.4002 557.267 18.5515 603.007 18.5515C649.256 18.5515 686.61 55.9085 686.61 102.16C686.61 147.903 649.764 185.26 604.024 185.769C604.278 185.769 604.786 185.769 605.04 185.769C652.305 185.769 690.676 147.395 690.676 100.127C690.422 52.6048 652.305 14.4854 605.04 14.4854Z" fill="#0049AF"/>
<path d="M605.04 66.0737C586.236 66.0737 570.989 81.3215 570.989 100.127C570.989 118.933 586.236 134.18 605.04 134.18C623.845 134.18 639.091 118.933 639.091 100.127C639.091 81.3215 623.845 66.0737 605.04 66.0737ZM605.04 70.648C607.073 70.648 608.598 72.1728 608.598 74.2058C608.598 76.2389 607.073 77.7637 605.04 77.7637C603.007 77.7637 601.483 76.2389 601.483 74.2058C601.483 72.1728 603.007 70.648 605.04 70.648ZM579.375 103.431C577.342 103.431 575.817 101.906 575.817 99.8729C575.817 97.8399 577.342 96.3151 579.375 96.3151C581.408 96.3151 582.933 97.8399 582.933 99.8729C582.933 101.906 581.408 103.431 579.375 103.431ZM589.285 120.712C587.761 122.236 585.728 122.236 584.203 120.712C582.678 119.187 582.678 117.154 584.203 115.629C585.728 114.104 587.761 114.104 589.285 115.629C590.81 116.9 590.81 119.187 589.285 120.712ZM589.285 84.371C587.761 85.8958 585.728 85.8958 584.203 84.371C582.678 82.8463 582.678 80.8132 584.203 79.2884C585.728 77.7637 587.761 77.7637 589.285 79.2884C590.81 80.8132 590.81 82.8463 589.285 84.371ZM605.04 129.098C603.007 129.098 601.483 127.573 601.483 125.54C601.483 123.507 603.007 121.982 605.04 121.982C607.073 121.982 608.598 123.507 608.598 125.54C608.598 127.573 606.819 129.098 605.04 129.098ZM605.04 112.579C598.179 112.579 592.335 106.989 592.335 99.8729C592.335 92.7573 597.925 87.1665 605.04 87.1665C612.155 87.1665 617.746 92.7573 617.746 99.8729C617.746 106.989 611.901 112.579 605.04 112.579ZM625.623 120.712C624.099 122.236 622.066 122.236 620.541 120.712C619.016 119.187 619.016 117.154 620.541 115.629C622.066 114.104 624.099 114.104 625.623 115.629C627.148 116.9 627.148 119.187 625.623 120.712ZM625.623 84.371C624.099 85.8958 622.066 85.8958 620.541 84.371C619.016 82.8463 619.016 80.8132 620.541 79.2884C622.066 77.7637 624.099 77.7637 625.623 79.2884C627.148 80.8132 627.148 82.8463 625.623 84.371ZM630.706 103.431C628.673 103.431 627.148 101.906 627.148 99.8729C627.148 97.8399 628.673 96.3151 630.706 96.3151C632.738 96.3151 634.263 97.8399 634.263 99.8729C634.263 101.906 632.484 103.431 630.706 103.431Z" fill="#010101"/>
<path d="M610.123 36.0864C570.735 33.0368 537.955 65.8196 541.258 105.21C543.799 136.213 568.956 161.372 599.958 163.914C639.345 166.963 672.126 134.435 669.076 94.7903C666.281 63.7865 641.124 38.6277 610.123 36.0864ZM641.887 130.623L631.468 120.203C629.689 122.745 627.402 124.778 625.115 126.557L635.534 136.976C636.55 137.992 636.55 140.025 635.28 140.788C628.673 145.616 621.049 148.92 612.664 150.191C611.139 150.445 609.614 149.174 609.614 147.649V133.164C608.09 133.418 606.565 133.418 605.04 133.418C603.516 133.418 601.991 133.164 600.466 133.164V147.649C600.466 149.174 598.942 150.445 597.417 150.191C589.031 148.92 581.154 145.616 574.801 140.788C573.53 139.771 573.53 137.992 574.547 136.976L584.965 126.557C582.424 124.778 580.391 122.49 578.613 120.203L568.194 130.623C567.178 131.639 565.145 131.639 564.382 130.368C559.554 123.761 556.251 116.137 554.98 107.751C554.726 106.226 555.997 104.701 557.521 104.701H572.006C571.752 103.177 571.752 101.652 571.752 100.127C571.752 98.6023 572.006 97.0775 572.006 95.5527H557.521C555.997 95.5527 554.726 94.028 554.98 92.5032C556.251 84.1169 559.554 76.2389 564.382 69.8856C565.399 68.615 567.178 68.615 568.194 69.6315L578.613 80.0508C580.391 77.5095 582.678 75.4765 584.965 73.6976L574.547 63.2783C573.53 62.2617 573.53 60.2287 574.801 59.4663C581.408 54.6379 589.031 51.3342 597.417 50.0635C598.942 49.8094 600.466 51.08 600.466 52.6048V67.0902C601.991 66.8361 603.516 66.8361 605.04 66.8361C606.565 66.8361 608.09 67.0902 609.614 67.0902V52.6048C609.614 51.08 611.139 49.8094 612.664 50.0635C621.049 51.3342 628.927 54.6379 635.28 59.4663C636.55 60.4828 636.55 62.2617 635.534 63.2783L625.115 73.6976C627.656 75.4765 629.689 77.7637 631.468 80.0508L641.887 69.6315C642.903 68.615 644.936 68.615 645.698 69.8856C650.526 76.493 653.83 84.1169 655.1 92.5032C655.354 94.028 654.084 95.5527 652.559 95.5527H638.075C638.329 97.0775 638.329 98.6023 638.329 100.127C638.329 101.652 638.075 103.177 638.075 104.701H652.559C654.084 104.701 655.354 106.226 655.1 107.751C653.83 116.137 650.526 124.015 645.698 130.368C644.936 131.639 643.157 131.639 641.887 130.623Z" fill="#010101"/>
<path d="M72.9301 134.689L63.0197 110.292L54.1258 134.689H5.33635L29.7311 65.5654H79.7911L69.6266 91.7408L97.0707 65.3113H148.655L107.235 101.652L122.99 134.689H72.9301Z" fill="#0048AF"/>
<path d="M138.491 69.1232L102.407 100.635L116.891 130.877H75.4712L64.5444 104.193H61.241L51.5847 130.877H10.9268L32.5263 69.3774H74.4548L63.528 97.5858H69.3725L98.8495 69.1232H138.491ZM158.82 61.4994H138.491H98.5954H95.546L93.259 63.5324L79.2829 77.0013L81.3158 72.1728L85.3816 61.7535H74.2007H32.2722H26.9359L25.1571 66.8361L3.55757 128.335L0 138.501H10.6727H51.3306H56.6669L58.4457 133.418L63.0197 120.712L68.3561 133.672L70.389 138.501H75.4712H116.891H129.089L123.752 127.573L111.809 102.668L143.573 74.9682L158.82 61.4994Z" fill="#FDF532"/>
<path d="M234.037 134.689L220.569 120.966L240.39 65.3113H289.433L273.424 112.834H299.344L289.942 134.689H234.037Z" fill="#0048AF"/>
<path d="M284.097 69.1232L268.088 116.9H293.499L287.401 131.131H235.562L224.635 120.457L242.931 69.3774H284.097M294.77 61.4994H284.097H243.185H237.849L236.07 66.582L217.774 117.662L215.995 121.982L219.299 125.286L230.225 136.213L232.512 138.501H235.562H287.146H292.229L294.262 133.926L300.36 119.695L304.934 109.022H293.245H278.507L291.212 71.4104L294.77 61.4994Z" fill="#FDF532"/>
<path d="M312.558 135.197L297.565 121.22L318.91 64.8031H408.612L397.939 86.6582H359.06L356.011 89.9619V90.4702H396.414L387.775 108.259H351.183L349.404 110.038V113.088H391.332L382.947 135.197H312.558Z" fill="#0048AF"/>
<path d="M402.513 68.615L395.398 82.8463H357.281L351.945 88.6912V94.5362H390.062L385.234 104.701H349.404L345.338 108.767V116.9H385.488L379.897 131.385H313.574L301.631 120.457L321.197 68.8691H402.513M414.711 60.9911H402.513H321.706H316.369L314.59 65.8196L295.024 117.408L293.245 122.236L297.057 125.794L309 136.722L311.287 138.755H314.336H380.66H385.996L387.775 133.926L393.365 119.441L397.431 109.022H392.095L392.857 107.497L397.685 97.3317L403.021 86.4041H402.767L403.021 85.8958L410.137 71.6646L414.711 60.9911Z" fill="#FDF532"/>
<path d="M382.947 134.943L391.332 113.596H437.581L438.851 112.325H392.095L402.513 82.338L429.957 64.8031H499.33L489.419 86.6582H446.22L443.933 88.9454H490.182L478.493 118.17L453.844 134.943H382.947Z" fill="#0048AF"/>
<path d="M493.485 68.615L487.132 82.8463H444.442L438.343 89.7078L440.376 93.0114H484.337L475.189 115.883L452.573 131.385H388.283L393.619 117.662H438.851L444.696 111.817L442.663 108.767H396.923L405.308 85.1334L430.72 69.1233H493.485M505.174 60.9911H493.485H431.228H428.941L427.162 62.2618L401.751 78.2719L399.464 79.7967L398.701 82.338L390.316 105.972L389.045 109.784H388.791L387.012 114.612L381.676 128.335L377.61 138.755H388.791H453.081H455.368L457.401 137.484L480.017 121.982L482.05 120.712L482.813 118.424L491.961 95.5527L496.026 85.1334H494.756L500.854 71.6646L505.174 60.9911Z" fill="#FDF532"/>
<path d="M137.475 134.943L122.482 120.712L136.458 81.5756L155.516 64.8031H157.041C157.295 64.8031 218.79 65.5655 218.79 65.5655L233.529 78.5261L214.979 125.032L197.699 135.197H137.475V134.943ZM174.829 112.579L179.911 109.022L188.043 90.4702L187.535 88.6913H182.961L179.403 92.2491L170.509 111.817L170.763 112.325H174.829V112.579Z" fill="#0048AF"/>
<path d="M156.787 68.615C157.041 68.615 217.266 69.3774 217.266 69.3774L228.955 79.5426L211.675 122.236L196.428 131.131H138.999L126.802 119.695L139.507 83.8628L156.787 68.615ZM168.476 116.391H175.845L182.961 111.563L192.109 90.7243L190.33 84.8793H181.182L176.1 90.216L166.189 112.325L168.476 116.391ZM156.787 60.9911H153.992L151.705 63.0242L134.425 78.2719L132.9 79.5426L132.392 81.3215L119.687 117.154L117.908 121.982L121.465 125.286L133.663 136.722L135.95 138.755H138.999H196.428H198.207L199.986 137.738L215.233 128.844L217.52 127.573L218.536 125.032L235.816 82.338L237.849 77.2554L233.783 73.6976L222.094 63.5324L220.061 61.7535H217.266C177.116 61.2452 156.787 60.9911 156.787 60.9911Z" fill="#FDF532"/>
<path d="M495.01 134.943L480.017 120.712L493.993 81.5756L513.052 64.8031H514.577C514.831 64.8031 576.326 65.5655 576.326 65.5655L591.064 78.5261L572.514 125.032L555.234 135.197H495.01V134.943ZM532.364 112.579L537.447 109.022L545.578 90.4702L545.07 88.6913H540.496L536.938 92.2491L528.044 111.817L528.299 112.325H532.364V112.579Z" fill="#0048AF"/>
<path d="M514.322 68.615C514.576 68.615 574.801 69.3774 574.801 69.3774L586.49 79.5426L569.211 122.236L553.964 131.131H496.535L484.337 119.695L497.043 83.8628L514.322 68.615ZM526.266 116.391H533.635L540.75 111.563L549.898 90.7243L548.119 84.8793H538.971L533.889 90.216L523.979 112.325L526.266 116.391ZM514.322 60.9911H511.527L509.24 63.0242L491.961 78.2719L490.436 79.5426L489.674 81.3215L476.968 117.154L475.189 121.728L478.747 125.032L490.944 136.468L493.231 138.501H496.28H553.964H555.997L557.776 137.484L573.022 128.59L575.309 127.319L576.326 124.778L593.605 82.0839L595.638 77.0013L591.572 73.4435L579.883 63.2783L577.85 61.4994H575.055C534.905 61.2453 514.576 60.9911 514.322 60.9911Z" fill="#FDF532"/>
<path d="M616.221 134.689L625.369 114.104H663.486L667.044 110.801V109.276H634.771L642.141 90.216H675.175L676.192 87.4206L675.938 86.9123H634.263L641.632 65.0572H714.308L727.268 75.9848L722.186 95.2986L716.595 98.3482L714.308 99.6188V100.635L716.595 103.685V113.596L710.243 122.236L689.405 134.689H616.221Z" fill="#0048AF"/>
<path d="M713.038 68.8691L722.948 77.2554L718.882 92.5032L714.817 94.7903L710.497 97.3316V101.906L712.784 104.956V112.325L707.701 119.187L688.389 130.877H622.066L627.656 117.662H664.757L670.601 112.325V105.21H640.108L644.682 93.5197H677.462L680.257 86.9123L678.225 82.5921H639.6L644.428 68.615H713.038M715.833 61.2452H713.038H644.428H638.837L637.058 66.3278L632.23 80.305L628.927 90.4701H637.821L637.567 90.9784L632.993 102.668L630.197 110.038H627.656H622.574L620.541 114.612L614.951 127.827L610.377 138.501H622.066H688.389H690.422L692.201 137.484L711.513 125.794L712.784 125.032L713.8 123.761L718.882 116.9L720.407 114.867V112.325V104.956V102.414L719.391 101.144L722.44 99.3647L725.235 97.8399L725.998 94.7903L730.063 79.5426L731.334 74.9682L727.776 71.9187L717.866 63.5324L715.833 61.2452Z" fill="#FDF532"/>
<path d="M803.502 135.197L813.158 112.834H859.914L861.185 111.817H813.666L831.708 64.8031H921.41L912.007 86.4041H868.554L866.267 89.1995L910.737 88.9454L896.253 120.712L876.178 135.197H803.502Z" fill="#0048AF"/>
<path d="M915.565 68.615L909.466 82.5921H866.776L861.439 88.9454L862.71 93.0114L904.892 92.7573L893.203 117.916L874.907 131.131H809.346L815.699 116.391H861.439L865.505 113.088V107.751H819.257L834.249 68.3609H915.565M927 60.9911H915.311H834.249H828.913L827.134 65.8196L812.142 105.21L810.617 108.767L808.584 113.342L802.231 128.081L797.657 138.755H809.346H874.907H877.448L879.481 137.23L897.777 124.015L899.302 122.745L900.064 120.966L911.753 95.8069L914.549 89.9619H914.803L916.836 85.3876L922.934 71.4104L927 60.9911Z" fill="#FDF532"/>
<path d="M727.268 134.689L714.308 119.187L729.301 79.5426L740.228 69.1233L753.187 65.3113H828.15L819.511 87.6747L770.721 87.4206L769.705 88.6912L811.379 88.9454L817.478 98.6023L809.854 115.375L799.182 127.573L784.697 134.689H727.268ZM768.434 113.088L769.705 110.292V108.005H763.098L761.827 110.292V113.088H768.434Z" fill="#0048AF"/>
<path d="M822.56 68.8691L816.716 83.6086L768.688 83.3545L762.336 92.249L809.346 92.7573L813.158 98.8564L806.551 113.342L796.641 124.524L783.681 130.877H729.047L718.628 118.424L732.35 81.5756L742.007 72.4269L753.696 69.1233L822.56 68.8691ZM758.016 116.9H770.721L773.262 111.055V104.193H760.557L758.016 109.276V116.9ZM833.741 61.2452H822.56H753.696H752.679L751.663 61.4994L739.974 64.8031L738.195 65.3113L736.924 66.582L727.268 75.7306L725.998 77.0013L725.489 78.5261L711.513 115.629L709.989 119.695L712.784 122.999L723.202 135.451L725.489 138.247H729.047H783.681H785.46L786.984 137.484L799.944 131.131L801.215 130.368L802.231 129.098L812.142 117.916L812.904 117.154L813.412 116.137L820.019 101.652L821.798 97.8399L819.765 94.2821L817.478 90.7243H822.052L824.085 85.8958L829.929 71.1563L833.741 61.2452Z" fill="#FDF532"/>
</g>
<defs>
<clipPath id="clip0_420_6371">
<rect width="927" height="200" fill="white"/>
</clipPath>
</defs>
</svg>
