<svg xmlns="http://www.w3.org/2000/svg" version="1.1" xmlns:xlink="http://www.w3.org/1999/xlink" width="200" height="200"><svg xmlns="http://www.w3.org/2000/svg" version="1.1" xmlns:xlink="http://www.w3.org/1999/xlink" xmlns:svgjs="http://svgjs.dev/svgjs" width="200" height="200"><svg width="200" height="200" viewBox="0 0 200 200" fill="none" xmlns="http://www.w3.org/2000/svg">
<path d="M100.04 41.9314C132.058 41.9314 158.232 68.1067 158.232 100.127C158.232 132.147 132.058 158.323 100.04 158.323C68.0222 158.323 41.8487 132.147 41.8487 100.127C41.8487 68.1067 68.0222 41.9314 100.04 41.9314ZM100.04 0C44.8981 0 0.174377 44.7268 0.174377 99.8729C0.174377 155.019 44.8981 199.746 100.04 199.746C155.183 199.746 199.906 155.019 199.906 99.8729C199.906 44.7268 155.183 0 100.04 0Z" fill="#010101"></path>
<path d="M100.04 171.792C139.757 171.792 171.954 139.593 171.954 99.8729C171.954 60.1533 139.757 27.9543 100.04 27.9543C60.3235 27.9543 28.1266 60.1533 28.1266 99.8729C28.1266 139.593 60.3235 171.792 100.04 171.792Z" stroke="#FDF532" stroke-width="0.8379" stroke-miterlimit="10"></path>
<path d="M100.04 14.4854C52.7755 14.4854 14.4046 52.859 14.4046 100.127C14.4046 100.381 14.4046 100.889 14.4046 101.144C14.9128 55.4002 52.2673 18.5515 98.0074 18.5515C144.256 18.5515 181.61 55.9085 181.61 102.16C181.61 147.903 144.764 185.26 99.0239 185.769C99.278 185.769 99.7862 185.769 100.04 185.769C147.305 185.769 185.676 147.395 185.676 100.127C185.422 52.6048 147.305 14.4854 100.04 14.4854Z" fill="#0049AF"></path>
<path d="M100.04 66.0737C81.2361 66.0737 65.9893 81.3215 65.9893 100.127C65.9893 118.933 81.2361 134.18 100.04 134.18C118.845 134.18 134.091 118.933 134.091 100.127C134.091 81.3215 118.845 66.0737 100.04 66.0737ZM100.04 70.648C102.073 70.648 103.598 72.1728 103.598 74.2058C103.598 76.2389 102.073 77.7637 100.04 77.7637C98.0074 77.7637 96.4827 76.2389 96.4827 74.2058C96.4827 72.1728 98.0074 70.648 100.04 70.648ZM74.375 103.431C72.3421 103.431 70.8175 101.906 70.8175 99.8729C70.8175 97.8399 72.3421 96.3151 74.375 96.3151C76.4079 96.3151 77.9326 97.8399 77.9326 99.8729C77.9326 101.906 76.4079 103.431 74.375 103.431ZM84.2854 120.712C82.7607 122.236 80.7278 122.236 79.2031 120.712C77.6785 119.187 77.6785 117.154 79.2031 115.629C80.7278 114.104 82.7607 114.104 84.2854 115.629C85.81 116.9 85.81 119.187 84.2854 120.712ZM84.2854 84.371C82.7607 85.8958 80.7278 85.8958 79.2031 84.371C77.6785 82.8463 77.6785 80.8132 79.2031 79.2884C80.7278 77.7637 82.7607 77.7637 84.2854 79.2884C85.81 80.8132 85.81 82.8463 84.2854 84.371ZM100.04 129.098C98.0074 129.098 96.4827 127.573 96.4827 125.54C96.4827 123.507 98.0074 121.982 100.04 121.982C102.073 121.982 103.598 123.507 103.598 125.54C103.598 127.573 101.819 129.098 100.04 129.098ZM100.04 112.579C93.1793 112.579 87.3347 106.989 87.3347 99.8729C87.3347 92.7573 92.9252 87.1665 100.04 87.1665C107.155 87.1665 112.746 92.7573 112.746 99.8729C112.746 106.989 106.901 112.579 100.04 112.579ZM120.623 120.712C119.099 122.236 117.066 122.236 115.541 120.712C114.016 119.187 114.016 117.154 115.541 115.629C117.066 114.104 119.099 114.104 120.623 115.629C122.148 116.9 122.148 119.187 120.623 120.712ZM120.623 84.371C119.099 85.8958 117.066 85.8958 115.541 84.371C114.016 82.8463 114.016 80.8132 115.541 79.2884C117.066 77.7637 119.099 77.7637 120.623 79.2884C122.148 80.8132 122.148 82.8463 120.623 84.371ZM125.706 103.431C123.673 103.431 122.148 101.906 122.148 99.8729C122.148 97.8399 123.673 96.3151 125.706 96.3151C127.738 96.3151 129.263 97.8399 129.263 99.8729C129.263 101.906 127.484 103.431 125.706 103.431Z" fill="#010101"></path>
<path d="M105.123 36.0864C65.7352 33.0368 32.9548 65.8196 36.2582 105.21C38.7994 136.213 63.9564 161.372 94.9581 163.914C134.345 166.963 167.126 134.435 164.076 94.7903C161.281 63.7865 136.124 38.6277 105.123 36.0864ZM136.887 130.623L126.468 120.203C124.689 122.745 122.402 124.778 120.115 126.557L130.534 136.976C131.55 137.992 131.55 140.025 130.28 140.788C123.673 145.616 116.049 148.92 107.664 150.191C106.139 150.445 104.614 149.174 104.614 147.649V133.164C103.09 133.418 101.565 133.418 100.04 133.418C98.5157 133.418 96.991 133.164 95.4663 133.164V147.649C95.4663 149.174 93.9416 150.445 92.417 150.191C84.0313 148.92 76.1538 145.616 69.801 140.788C68.5304 139.771 68.5305 137.992 69.5469 136.976L79.9655 126.557C77.4244 124.778 75.3915 122.49 73.6127 120.203L63.1941 130.623C62.1777 131.639 60.1448 131.639 59.3824 130.368C54.5543 123.761 51.2508 116.137 49.9803 107.751C49.7261 106.226 50.9967 104.701 52.5214 104.701H67.0058C66.7517 103.177 66.7517 101.652 66.7517 100.127C66.7517 98.6023 67.0058 97.0775 67.0058 95.5527H52.5214C50.9967 95.5527 49.7261 94.028 49.9803 92.5032C51.2508 84.1169 54.5543 76.2389 59.3824 69.8856C60.3989 68.615 62.1777 68.615 63.1941 69.6315L73.6127 80.0508C75.3915 77.5095 77.6785 75.4765 79.9655 73.6976L69.5469 63.2783C68.5305 62.2617 68.5304 60.2287 69.801 59.4663C76.4079 54.6379 84.0313 51.3342 92.417 50.0635C93.9416 49.8094 95.4663 51.08 95.4663 52.6048V67.0902C96.991 66.8361 98.5157 66.8361 100.04 66.8361C101.565 66.8361 103.09 67.0902 104.614 67.0902V52.6048C104.614 51.08 106.139 49.8094 107.664 50.0635C116.049 51.3342 123.927 54.6379 130.28 59.4663C131.55 60.4828 131.55 62.2617 130.534 63.2783L120.115 73.6976C122.656 75.4765 124.689 77.7637 126.468 80.0508L136.887 69.6315C137.903 68.615 139.936 68.615 140.698 69.8856C145.526 76.493 148.83 84.1169 150.1 92.5032C150.354 94.028 149.084 95.5527 147.559 95.5527H133.075C133.329 97.0775 133.329 98.6023 133.329 100.127C133.329 101.652 133.075 103.177 133.075 104.701H147.559C149.084 104.701 150.354 106.226 150.1 107.751C148.83 116.137 145.526 124.015 140.698 130.368C139.936 131.639 138.157 131.639 136.887 130.623Z" fill="#010101"></path>
</svg><style>@media (prefers-color-scheme: light) { :root { filter: none; } }
@media (prefers-color-scheme: dark) { :root { filter: none; } }
</style></svg><style>@media (prefers-color-scheme: light) { :root { filter: none; } }
@media (prefers-color-scheme: dark) { :root { filter: none; } }
</style></svg>