<svg width="50" height="50" viewBox="0 0 50 50" fill="none" xmlns="http://www.w3.org/2000/svg">
<path d="M38.9521 26.9938L33.7708 32.1938L29.6042 36.3396L26.0187 39.9438H25.9979L11.4729 25.3979C11.1019 25.0248 10.8937 24.5199 10.8937 23.9938C10.8937 23.4676 11.1019 22.9628 11.4729 22.5896L21.6146 12.4458C21.9878 12.0742 22.4931 11.8656 23.0198 11.8656C23.5465 11.8656 24.0517 12.0742 24.425 12.4458L38.9521 26.9938Z" stroke="#050000" stroke-width="2" stroke-linecap="round" stroke-linejoin="round"/>
<path d="M41.5417 32.3729L38.5521 35.3625L33.4896 40.4438L31.3979 42.5167C31.0247 42.8883 30.5194 43.0969 29.9927 43.0969C29.466 43.0969 28.9608 42.8883 28.5875 42.5167L26.0167 39.9459L29.6042 36.3375L33.7687 32.1917L38.95 26.9938L41.5396 29.5625C41.9107 29.936 42.119 30.4412 42.119 30.9677C42.119 31.4943 41.9107 31.9994 41.5396 32.3729" fill="white"/>
<path d="M41.5417 32.3729L38.5521 35.3625L33.4896 40.4438L31.3979 42.5167C31.0247 42.8883 30.5194 43.0969 29.9927 43.0969C29.466 43.0969 28.9608 42.8883 28.5875 42.5167L26.0167 39.9459L29.6042 36.3375L33.7687 32.1917L38.95 26.9938L41.5396 29.5625C41.9107 29.936 42.119 30.4412 42.119 30.9677C42.119 31.4943 41.9107 31.9994 41.5396 32.3729" stroke="#050000" stroke-width="2" stroke-linecap="round" stroke-linejoin="round"/>
<path d="M2.08333 17.0291C2.08388 13.3303 3.55363 9.78312 6.16931 7.16783C8.785 4.55254 12.3324 3.08331 16.0312 3.08331" stroke="#00B20C" stroke-width="2" stroke-linecap="round" stroke-linejoin="round"/>
<path d="M6.07083 17.0292C6.07028 15.7207 6.3276 14.425 6.82807 13.216C7.32854 12.0071 8.06235 10.9086 8.98756 9.98338C9.91277 9.05817 11.0112 8.32435 12.2202 7.82389C13.4292 7.32342 14.7249 7.0661 16.0333 7.06665M10.0542 17.0292C10.0542 15.4434 10.6841 13.9226 11.8054 12.8012C12.9267 11.6799 14.4476 11.05 16.0333 11.05" stroke="#00B20C" stroke-width="2" stroke-linecap="round" stroke-linejoin="round"/>
<path d="M47.9167 46.9187L38.4333 43.7729C36.8061 43.2375 35.3304 42.3211 34.1292 41.0999L30.1833 37.1541C29.6473 36.6095 29.3317 35.8859 29.2971 35.1226C29.2625 34.3593 29.5114 33.6101 29.996 33.0193C30.4805 32.4284 31.1665 32.0377 31.9218 31.9222C32.6772 31.8067 33.4485 31.9746 34.0875 32.3937L38.5521 35.3624L41.5417 32.3729C41.9128 31.9993 42.1211 31.4942 42.1211 30.9676C42.1211 30.4411 41.9128 29.936 41.5417 29.5624L31.4979 19.5208L32.0563 18.9624C33.1874 17.8248 34.6966 17.1417 36.2979 17.0427C37.8991 16.9436 39.481 17.4354 40.7438 18.4249L47.9188 24.0041" fill="white"/>
<path d="M47.9167 46.9187L38.4333 43.7729C36.8061 43.2375 35.3304 42.3211 34.1292 41.0999L30.1833 37.1541C29.6473 36.6095 29.3317 35.8859 29.2971 35.1226C29.2625 34.3593 29.5114 33.6101 29.996 33.0193C30.4805 32.4284 31.1665 32.0377 31.9218 31.9222C32.6772 31.8067 33.4485 31.9746 34.0875 32.3937L38.5521 35.3624L41.5417 32.3729C41.9128 31.9993 42.1211 31.4942 42.1211 30.9676C42.1211 30.4411 41.9128 29.936 41.5417 29.5624L31.4979 19.5208L32.0563 18.9624C33.1874 17.8248 34.6966 17.1417 36.2979 17.0427C37.8991 16.9436 39.481 17.4354 40.7438 18.4249L47.9188 24.0041M40.95 36.9562L38.5583 35.3624" stroke="#050000" stroke-width="2" stroke-linecap="round" stroke-linejoin="round"/>
</svg>
